<?xml version="1.0" encoding="utf-8"?>
<!-- Generator: Adobe Illustrator 15.1.0, SVG Export Plug-In . SVG Version: 6.00 Build 0)  -->
<!DOCTYPE svg PUBLIC "-//W3C//DTD SVG 1.1//EN" "http://www.w3.org/Graphics/SVG/1.1/DTD/svg11.dtd">
<svg version="1.1" id="レイヤー_1" xmlns="http://www.w3.org/2000/svg" xmlns:xlink="http://www.w3.org/1999/xlink" x="0px"
	 y="0px" width="120px" height="120px" viewBox="-5.678 599.584 120 120" enable-background="new -5.678 599.584 120 120"
	 xml:space="preserve">
<g>
	<g>
		<g>
			<g>
				<polygon fill="none" stroke="#446EFF" stroke-width="5" stroke-linecap="round" stroke-linejoin="round" points="
					45.028,608.367 54.322,603 63.617,608.367 63.617,619.1 54.322,624.467 45.028,619.1 				"/>
				
					<line fill="none" stroke="#446EFF" stroke-width="5" stroke-linecap="round" stroke-linejoin="round" x1="54.322" y1="650.116" x2="54.322" y2="624.467"/>
				<polyline fill="none" stroke="#446EFF" stroke-width="5" stroke-linecap="round" stroke-linejoin="round" points="
					69.564,632.432 54.322,639.602 39.082,632.434 				"/>
			</g>
			<g>
				
					<line fill="none" stroke="#446EFF" stroke-width="5" stroke-linecap="round" stroke-linejoin="round" x1="61.871" y1="654.475" x2="103.979" y2="630.164"/>
				<polyline fill="none" stroke="#446EFF" stroke-width="5" stroke-linecap="round" stroke-linejoin="round" points="
					84.807,658.832 70.977,649.217 69.564,632.432 				"/>
				
					<line fill="none" stroke="#446EFF" stroke-width="5" stroke-linecap="round" stroke-linejoin="round" x1="83.713" y1="628.469" x2="83" y2="642.275"/>
				
					<line fill="none" stroke="#446EFF" stroke-width="5" stroke-linecap="round" stroke-linejoin="round" x1="95.312" y1="648.561" x2="83" y2="642.275"/>
				<g>
					
						<line fill="none" stroke="#446EFF" stroke-width="5" stroke-linecap="round" stroke-linejoin="round" x1="97.197" y1="624.324" x2="93.121" y2="636.432"/>
					
						<line fill="none" stroke="#446EFF" stroke-width="5" stroke-linecap="round" stroke-linejoin="round" x1="105.645" y1="638.955" x2="93.121" y2="636.432"/>
				</g>
			</g>
		</g>
		<g>
			<g>
				<polygon fill="none" stroke="#446EFF" stroke-width="5" stroke-linecap="round" stroke-linejoin="round" points="
					15.266,692.115 5.97,686.748 5.97,676.014 15.266,670.648 24.561,676.014 24.561,686.748 				"/>
				
					<line fill="none" stroke="#446EFF" stroke-width="5" stroke-linecap="round" stroke-linejoin="round" x1="46.773" y1="663.191" x2="24.561" y2="676.014"/>
				<polyline fill="none" stroke="#446EFF" stroke-width="5" stroke-linecap="round" stroke-linejoin="round" points="
					23.839,658.833 37.668,668.447 39.08,685.23 				"/>
			</g>
			<g>
				
					<line fill="none" stroke="#446EFF" stroke-width="5" stroke-linecap="round" stroke-linejoin="round" x1="46.773" y1="654.475" x2="4.667" y2="630.164"/>
				<polyline fill="none" stroke="#446EFF" stroke-width="5" stroke-linecap="round" stroke-linejoin="round" points="
					39.08,632.432 37.669,649.217 23.838,658.833 				"/>
				
					<line fill="none" stroke="#446EFF" stroke-width="5" stroke-linecap="round" stroke-linejoin="round" x1="13.333" y1="648.561" x2="25.645" y2="642.275"/>
				
					<line fill="none" stroke="#446EFF" stroke-width="5" stroke-linecap="round" stroke-linejoin="round" x1="24.932" y1="628.471" x2="25.645" y2="642.275"/>
				<g>
					
						<line fill="none" stroke="#446EFF" stroke-width="5" stroke-linecap="round" stroke-linejoin="round" x1="3" y1="638.955" x2="15.523" y2="636.432"/>
					
						<line fill="none" stroke="#446EFF" stroke-width="5" stroke-linecap="round" stroke-linejoin="round" x1="11.447" y1="624.325" x2="15.523" y2="636.432"/>
				</g>
			</g>
		</g>
		<g>
			<g>
				<polygon fill="none" stroke="#446EFF" stroke-width="5" stroke-linecap="round" stroke-linejoin="round" points="
					102.674,676.016 102.674,686.749 93.379,692.115 84.084,686.748 84.084,676.016 93.379,670.648 				"/>
				
					<line fill="none" stroke="#446EFF" stroke-width="5" stroke-linecap="round" stroke-linejoin="round" x1="61.871" y1="663.191" x2="84.084" y2="676.016"/>
				<polyline fill="none" stroke="#446EFF" stroke-width="5" stroke-linecap="round" stroke-linejoin="round" points="
					69.564,685.232 70.977,668.448 84.805,658.833 				"/>
			</g>
			<g>
				
					<line fill="none" stroke="#446EFF" stroke-width="5" stroke-linecap="round" stroke-linejoin="round" x1="54.322" y1="667.549" x2="54.322" y2="716.169"/>
				<polyline fill="none" stroke="#446EFF" stroke-width="5" stroke-linecap="round" stroke-linejoin="round" points="
					39.081,685.232 54.322,678.062 69.566,685.232 				"/>
				
					<line fill="none" stroke="#446EFF" stroke-width="5" stroke-linecap="round" stroke-linejoin="round" x1="65.922" y1="699.466" x2="54.322" y2="691.947"/>
				
					<line fill="none" stroke="#446EFF" stroke-width="5" stroke-linecap="round" stroke-linejoin="round" x1="42.723" y1="699.465" x2="54.322" y2="691.947"/>
				<g>
					
						<line fill="none" stroke="#446EFF" stroke-width="5" stroke-linecap="round" stroke-linejoin="round" x1="62.77" y1="713.217" x2="54.322" y2="703.634"/>
					
						<line fill="none" stroke="#446EFF" stroke-width="5" stroke-linecap="round" stroke-linejoin="round" x1="45.876" y1="713.217" x2="54.322" y2="703.634"/>
				</g>
			</g>
		</g>
	</g>
	<polygon fill="none" stroke="#446EFF" stroke-width="5" stroke-linecap="round" stroke-linejoin="round" points="54.322,650.116 
		61.732,645.999 61.871,654.475 69.141,658.833 61.871,663.191 61.732,671.666 54.322,667.549 46.913,671.666 46.773,663.191 
		39.503,658.833 46.773,654.475 46.913,645.999 	"/>
</g>
</svg>
